<?xml version="1.0" encoding="UTF-8" standalone="no"?>
<!-- Created with Inkscape (http://www.inkscape.org/) -->
<svg xmlns:dc="http://purl.org/dc/elements/1.1/" xmlns:cc="http://creativecommons.org/ns#" xmlns:rdf="http://www.w3.org/1999/02/22-rdf-syntax-ns#" xmlns:svg="http://www.w3.org/2000/svg" xmlns="http://www.w3.org/2000/svg" xmlns:sodipodi="http://sodipodi.sourceforge.net/DTD/sodipodi-0.dtd" xmlns:inkscape="http://www.inkscape.org/namespaces/inkscape" width="160" height="160" viewBox="0 0 160 160" id="svg7724" inkscape:version="0.91 r13725" sodipodi:docname="logo.svg">
  <defs id="defs7726"/>
  <metadata id="metadata7729"/>
  <g inkscape:label="Calque 1" inkscape:groupmode="layer" id="layer1" transform="translate(0,-892.36216)">
    <rect style="display:inline;fill:#fdfaf3;fill-opacity:1;stroke:#2e3b58;stroke-width:3.80719948;stroke-miterlimit:4;stroke-dasharray:none;stroke-opacity:1" id="rect6913-3" width="156.19279" height="156.19279" x="1.9035997" y="894.26575" ry="19.524099" inkscape:export-filename="/home/xubuntu/Bureau/logo.png" inkscape:export-xdpi="300" inkscape:export-ydpi="300"/>
    <path sodipodi:nodetypes="csscccssccscssccccssccccscccscc" inkscape:export-ydpi="300" inkscape:export-xdpi="300" inkscape:export-filename="/home/xubuntu/Bureau/logo.png" inkscape:connector-curvature="0" id="path3161-5-7-1-3-1-3-5-7-6" d="m 81.935828,937.08254 c -15.38773,0 -29.33565,6.2343 -39.38275,16.42438 -12.76334,12.94507 -18.41595,33.66452 -18.89413,47.59898 -0.30158,8.7881 -9.74357,16.7492 -17.7019004,39.9211 5.8647304,7.1255 15.7333604,10.0732 25.1476904,8.3821 8.03778,-17.801 11.68213,-25.6778 21.89194,-32.7559 -7.2171,-3.7312 -12.35691,-12.6417 -12.35691,-23.12179 0,-13.8267 8.85084,-25.03523 19.77106,-25.03523 10.92008,0 19.77089,11.20864 19.77106,25.03523 0,5.21102 -1.19681,10.10489 -3.34829,14.11239 1.84675,-0.2073 3.68665,-0.3987 5.58052,-0.3987 1.00721,0 2.03493,0.02 3.02944,0.08 -3.00626,-3.1623 -4.86306,-7.1614 -4.86306,-11.56094 0,-10.14091 9.62927,-18.41773 21.445252,-18.41773 11.8158,0 21.36925,8.27696 21.36942,18.41773 0,8.72784 -7.07214,15.99294 -16.58221,17.85964 12.06189,6.6073 20.51783,18.0234 29.10244,35.7863 5.55141,-0.018 14.52717,-1.4899 22.32628,-9.6422 -8.23521,-26.578 -15.57461,-27.193 -17.50387,-35.4218 -4.15909,-17.73994 -5.6464,-37.05072 -19.57877,-51.0781 -10.00913,-10.07733 -23.949722,-16.18519 -39.223212,-16.18519 z m 24.873222,76.54096 c -6.5342,-3.5794 -13.767982,-5.8404 -21.365492,-6.2988 3.92325,4.1269 9.89243,6.7773 16.582192,6.7773 1.64662,0 3.24345,-0.1765 4.7833,-0.4785 z m -29.975452,-5.9797 c -8.65005,0.9717 -16.74947,4.096 -23.83692,9.0094 2.3047,1.1916 4.77098,1.9137 7.41415,1.9137 6.80467,0 12.86539,-4.2974 16.42277,-10.9231 z" style="display:inline;fill:#2e3b58;fill-opacity:1;fill-rule:evenodd;stroke:none"/>
    <rect inkscape:export-ydpi="300" inkscape:export-xdpi="300" inkscape:export-filename="/home/xubuntu/Bureau/logo.png" id="rect3326-3-4-6-4-6-1-9-5-7" y="938.10443" x="38.569736" height="78.505463" width="86.589981" style="display:inline;fill:none;stroke:none"/>
    <path inkscape:export-ydpi="300" inkscape:export-xdpi="300" inkscape:export-filename="/home/xubuntu/Bureau/logo.png" sodipodi:open="true" sodipodi:end="6.2831679" sodipodi:start="0" d="m 91.999398,995.94165 a 5.6647654,8.29568 0 0 1 -5.66474,8.29565 5.6647654,8.29568 0 0 1 -5.66479,-8.29558 5.6647654,8.29568 0 0 1 5.664691,-8.29575 5.6647654,8.29568 0 0 1 5.664839,8.29554" sodipodi:ry="8.29568" sodipodi:rx="5.6647654" sodipodi:cy="995.94165" sodipodi:cx="86.334633" id="path3231-5-8-8-4-4-3-7-3-5" style="display:inline;fill:#2e3b58;fill-opacity:1;fill-rule:evenodd;stroke:none" sodipodi:type="arc"/>
    <path inkscape:export-ydpi="300" inkscape:export-xdpi="300" inkscape:export-filename="/home/xubuntu/Bureau/logo.png" sodipodi:open="true" sodipodi:end="6.2831679" sodipodi:start="0" d="m 79.826608,995.76941 a 5.6647654,8.29568 0 0 1 -5.664741,8.29569 5.6647654,8.29568 0 0 1 -5.66479,-8.29562 5.6647654,8.29568 0 0 1 5.664691,-8.29575 5.6647654,8.29568 0 0 1 5.66484,8.29553" sodipodi:ry="8.29568" sodipodi:rx="5.6647654" sodipodi:cy="995.76941" sodipodi:cx="74.161842" id="path3217-9-8-5-9-4-9-7-5-3" style="display:inline;fill:#2e3b58;fill-opacity:1;fill-rule:evenodd;stroke:none" sodipodi:type="arc"/>
    <path inkscape:export-ydpi="300" inkscape:export-xdpi="300" inkscape:export-filename="/home/xubuntu/Bureau/logo.png" sodipodi:nodetypes="zsssz" d="m 82.308898,1037.6571 c 2.48559,-0.05 22.362502,-18.5695 17.22552,-24.7708 -4.04801,-4.8869 -8.41616,-6.148 -18.35621,-5.96 -9.94,0.1877 -12.37242,2.2045 -17.61701,6.0237 -7.28264,5.3036 16.26217,24.7574 18.7477,24.7071 z" style="display:inline;fill:#2e3b58;fill-opacity:1;fill-rule:evenodd;stroke:none" id="path3202-7-24-7-7-4-4-6-6-5" inkscape:connector-curvature="0"/>
    <rect inkscape:export-ydpi="300" inkscape:export-xdpi="300" inkscape:export-filename="/home/xubuntu/Bureau/logo.png" style="display:inline;fill:none;stroke:none" width="86.589981" height="78.505463" x="38.569736" y="938.10443" id="rect4283-9-5-6-6-1-1-7-2-6"/>
    <rect inkscape:export-ydpi="300" inkscape:export-xdpi="300" inkscape:export-filename="/home/xubuntu/Bureau/logo.png" style="display:inline;fill:none;stroke:none" width="86.589981" height="78.505463" x="38.569736" y="938.10443" id="rect4299-9-5-1-1-4-8-3-9-2"/>
    <rect inkscape:export-ydpi="300" inkscape:export-xdpi="300" inkscape:export-filename="/home/xubuntu/Bureau/logo.png" id="rect4315-0-17-8-9-7-8-6-1-9" y="938.10443" x="38.569736" height="78.505463" width="86.589981" style="display:inline;fill:none;stroke:none"/>
  </g>
</svg>